<?xml version="1.0" encoding="utf-8" ?>
<svg baseProfile="full" height="20" version="1.1" width="16" xmlns="http://www.w3.org/2000/svg" xmlns:ev="http://www.w3.org/2001/xml-events" xmlns:xlink="http://www.w3.org/1999/xlink"><defs /><rect fill="black" height="1" width="1" x="0" y="0" /><rect fill="black" height="1" width="1" x="1" y="0" /><rect fill="black" height="1" width="1" x="2" y="0" /><rect fill="black" height="1" width="1" x="3" y="0" /><rect fill="black" height="1" width="1" x="4" y="0" /><rect fill="black" height="1" width="1" x="5" y="0" /><rect fill="black" height="1" width="1" x="6" y="0" /><rect fill="black" height="1" width="1" x="7" y="0" /><rect fill="black" height="1" width="1" x="8" y="0" /><rect fill="black" height="1" width="1" x="9" y="0" /><rect fill="black" height="1" width="1" x="10" y="0" /><rect fill="black" height="1" width="1" x="11" y="0" /><rect fill="black" height="1" width="1" x="12" y="0" /><rect fill="black" height="1" width="1" x="13" y="0" /><rect fill="black" height="1" width="1" x="14" y="0" /><rect fill="black" height="1" width="1" x="15" y="0" /><rect fill="black" height="1" width="1" x="0" y="1" /><rect fill="black" height="1" width="1" x="1" y="1" /><rect fill="black" height="1" width="1" x="2" y="1" /><rect fill="black" height="1" width="1" x="3" y="1" /><rect fill="black" height="1" width="1" x="4" y="1" /><rect fill="black" height="1" width="1" x="5" y="1" /><rect fill="black" height="1" width="1" x="6" y="1" /><rect fill="black" height="1" width="1" x="7" y="1" /><rect fill="black" height="1" width="1" x="8" y="1" /><rect fill="black" height="1" width="1" x="9" y="1" /><rect fill="black" height="1" width="1" x="10" y="1" /><rect fill="black" height="1" width="1" x="11" y="1" /><rect fill="black" height="1" width="1" x="12" y="1" /><rect fill="black" height="1" width="1" x="13" y="1" /><rect fill="black" height="1" width="1" x="14" y="1" /><rect fill="black" height="1" width="1" x="15" y="1" /><rect fill="black" height="1" width="1" x="0" y="2" /><rect fill="black" height="1" width="1" x="1" y="2" /><rect fill="black" height="1" width="1" x="14" y="2" /><rect fill="black" height="1" width="1" x="15" y="2" /><rect fill="black" height="1" width="1" x="0" y="3" /><rect fill="black" height="1" width="1" x="1" y="3" /><rect fill="black" height="1" width="1" x="14" y="3" /><rect fill="black" height="1" width="1" x="15" y="3" /><rect fill="black" height="1" width="1" x="0" y="4" /><rect fill="black" height="1" width="1" x="1" y="4" /><rect fill="black" height="1" width="1" x="14" y="4" /><rect fill="black" height="1" width="1" x="15" y="4" /><rect fill="black" height="1" width="1" x="0" y="5" /><rect fill="black" height="1" width="1" x="1" y="5" /><rect fill="black" height="1" width="1" x="4" y="5" /><rect fill="black" height="1" width="1" x="5" y="5" /><rect fill="black" height="1" width="1" x="6" y="5" /><rect fill="black" height="1" width="1" x="7" y="5" /><rect fill="black" height="1" width="1" x="8" y="5" /><rect fill="black" height="1" width="1" x="9" y="5" /><rect fill="black" height="1" width="1" x="10" y="5" /><rect fill="black" height="1" width="1" x="11" y="5" /><rect fill="black" height="1" width="1" x="14" y="5" /><rect fill="black" height="1" width="1" x="15" y="5" /><rect fill="black" height="1" width="1" x="0" y="6" /><rect fill="black" height="1" width="1" x="1" y="6" /><rect fill="black" height="1" width="1" x="4" y="6" /><rect fill="black" height="1" width="1" x="5" y="6" /><rect fill="black" height="1" width="1" x="6" y="6" /><rect fill="black" height="1" width="1" x="7" y="6" /><rect fill="black" height="1" width="1" x="8" y="6" /><rect fill="black" height="1" width="1" x="9" y="6" /><rect fill="black" height="1" width="1" x="10" y="6" /><rect fill="black" height="1" width="1" x="11" y="6" /><rect fill="black" height="1" width="1" x="14" y="6" /><rect fill="black" height="1" width="1" x="15" y="6" /><rect fill="black" height="1" width="1" x="0" y="7" /><rect fill="black" height="1" width="1" x="1" y="7" /><rect fill="black" height="1" width="1" x="4" y="7" /><rect fill="black" height="1" width="1" x="5" y="7" /><rect fill="black" height="1" width="1" x="6" y="7" /><rect fill="black" height="1" width="1" x="7" y="7" /><rect fill="black" height="1" width="1" x="8" y="7" /><rect fill="black" height="1" width="1" x="9" y="7" /><rect fill="black" height="1" width="1" x="10" y="7" /><rect fill="black" height="1" width="1" x="11" y="7" /><rect fill="black" height="1" width="1" x="14" y="7" /><rect fill="black" height="1" width="1" x="15" y="7" /><rect fill="black" height="1" width="1" x="0" y="8" /><rect fill="black" height="1" width="1" x="1" y="8" /><rect fill="black" height="1" width="1" x="14" y="8" /><rect fill="black" height="1" width="1" x="15" y="8" /><rect fill="black" height="1" width="1" x="0" y="9" /><rect fill="black" height="1" width="1" x="1" y="9" /><rect fill="black" height="1" width="1" x="4" y="9" /><rect fill="black" height="1" width="1" x="5" y="9" /><rect fill="black" height="1" width="1" x="6" y="9" /><rect fill="black" height="1" width="1" x="7" y="9" /><rect fill="black" height="1" width="1" x="8" y="9" /><rect fill="black" height="1" width="1" x="9" y="9" /><rect fill="black" height="1" width="1" x="10" y="9" /><rect fill="black" height="1" width="1" x="11" y="9" /><rect fill="black" height="1" width="1" x="14" y="9" /><rect fill="black" height="1" width="1" x="15" y="9" /><rect fill="black" height="1" width="1" x="0" y="10" /><rect fill="black" height="1" width="1" x="1" y="10" /><rect fill="black" height="1" width="1" x="4" y="10" /><rect fill="black" height="1" width="1" x="5" y="10" /><rect fill="black" height="1" width="1" x="6" y="10" /><rect fill="black" height="1" width="1" x="7" y="10" /><rect fill="black" height="1" width="1" x="8" y="10" /><rect fill="black" height="1" width="1" x="9" y="10" /><rect fill="black" height="1" width="1" x="10" y="10" /><rect fill="black" height="1" width="1" x="11" y="10" /><rect fill="black" height="1" width="1" x="14" y="10" /><rect fill="black" height="1" width="1" x="15" y="10" /><rect fill="black" height="1" width="1" x="0" y="11" /><rect fill="black" height="1" width="1" x="1" y="11" /><rect fill="black" height="1" width="1" x="4" y="11" /><rect fill="black" height="1" width="1" x="5" y="11" /><rect fill="black" height="1" width="1" x="6" y="11" /><rect fill="black" height="1" width="1" x="7" y="11" /><rect fill="black" height="1" width="1" x="8" y="11" /><rect fill="black" height="1" width="1" x="9" y="11" /><rect fill="black" height="1" width="1" x="10" y="11" /><rect fill="black" height="1" width="1" x="11" y="11" /><rect fill="black" height="1" width="1" x="14" y="11" /><rect fill="black" height="1" width="1" x="15" y="11" /><rect fill="black" height="1" width="1" x="0" y="12" /><rect fill="black" height="1" width="1" x="1" y="12" /><rect fill="black" height="1" width="1" x="14" y="12" /><rect fill="black" height="1" width="1" x="15" y="12" /><rect fill="black" height="1" width="1" x="0" y="13" /><rect fill="black" height="1" width="1" x="1" y="13" /><rect fill="black" height="1" width="1" x="4" y="13" /><rect fill="black" height="1" width="1" x="5" y="13" /><rect fill="black" height="1" width="1" x="6" y="13" /><rect fill="black" height="1" width="1" x="7" y="13" /><rect fill="black" height="1" width="1" x="8" y="13" /><rect fill="black" height="1" width="1" x="9" y="13" /><rect fill="black" height="1" width="1" x="10" y="13" /><rect fill="black" height="1" width="1" x="11" y="13" /><rect fill="black" height="1" width="1" x="14" y="13" /><rect fill="black" height="1" width="1" x="15" y="13" /><rect fill="black" height="1" width="1" x="0" y="14" /><rect fill="black" height="1" width="1" x="1" y="14" /><rect fill="black" height="1" width="1" x="4" y="14" /><rect fill="black" height="1" width="1" x="5" y="14" /><rect fill="black" height="1" width="1" x="6" y="14" /><rect fill="black" height="1" width="1" x="7" y="14" /><rect fill="black" height="1" width="1" x="8" y="14" /><rect fill="black" height="1" width="1" x="9" y="14" /><rect fill="black" height="1" width="1" x="10" y="14" /><rect fill="black" height="1" width="1" x="11" y="14" /><rect fill="black" height="1" width="1" x="14" y="14" /><rect fill="black" height="1" width="1" x="15" y="14" /><rect fill="black" height="1" width="1" x="0" y="15" /><rect fill="black" height="1" width="1" x="1" y="15" /><rect fill="black" height="1" width="1" x="14" y="15" /><rect fill="black" height="1" width="1" x="15" y="15" /><rect fill="black" height="1" width="1" x="0" y="16" /><rect fill="black" height="1" width="1" x="1" y="16" /><rect fill="black" height="1" width="1" x="14" y="16" /><rect fill="black" height="1" width="1" x="15" y="16" /><rect fill="black" height="1" width="1" x="0" y="17" /><rect fill="black" height="1" width="1" x="1" y="17" /><rect fill="black" height="1" width="1" x="14" y="17" /><rect fill="black" height="1" width="1" x="15" y="17" /><rect fill="black" height="1" width="1" x="0" y="18" /><rect fill="black" height="1" width="1" x="1" y="18" /><rect fill="black" height="1" width="1" x="2" y="18" /><rect fill="black" height="1" width="1" x="3" y="18" /><rect fill="black" height="1" width="1" x="4" y="18" /><rect fill="black" height="1" width="1" x="5" y="18" /><rect fill="black" height="1" width="1" x="6" y="18" /><rect fill="black" height="1" width="1" x="7" y="18" /><rect fill="black" height="1" width="1" x="8" y="18" /><rect fill="black" height="1" width="1" x="9" y="18" /><rect fill="black" height="1" width="1" x="10" y="18" /><rect fill="black" height="1" width="1" x="11" y="18" /><rect fill="black" height="1" width="1" x="12" y="18" /><rect fill="black" height="1" width="1" x="13" y="18" /><rect fill="black" height="1" width="1" x="14" y="18" /><rect fill="black" height="1" width="1" x="15" y="18" /><rect fill="black" height="1" width="1" x="0" y="19" /><rect fill="black" height="1" width="1" x="1" y="19" /><rect fill="black" height="1" width="1" x="2" y="19" /><rect fill="black" height="1" width="1" x="3" y="19" /><rect fill="black" height="1" width="1" x="4" y="19" /><rect fill="black" height="1" width="1" x="5" y="19" /><rect fill="black" height="1" width="1" x="6" y="19" /><rect fill="black" height="1" width="1" x="7" y="19" /><rect fill="black" height="1" width="1" x="8" y="19" /><rect fill="black" height="1" width="1" x="9" y="19" /><rect fill="black" height="1" width="1" x="10" y="19" /><rect fill="black" height="1" width="1" x="11" y="19" /><rect fill="black" height="1" width="1" x="12" y="19" /><rect fill="black" height="1" width="1" x="13" y="19" /><rect fill="black" height="1" width="1" x="14" y="19" /><rect fill="black" height="1" width="1" x="15" y="19" /></svg>